EBGaramondVF-x001482.00_x004400.00_x00338.00_x002392.00.ufo
<glyph name="exclam" format="1">
  <advance width="179"/>
  <unicode hex="0021"/>
  <outline>
    <contour>
      <point x="104" y="237" type="curve" smooth="yes"/>
      <point x="104" y="362"/>
      <point x="93" y="498"/>
      <point x="93" y="637" type="curve" smooth="yes"/>
      <point x="93" y="643"/>
      <point x="93" y="649"/>
      <point x="88" y="649" type="curve" smooth="yes"/>
      <point x="83" y="649"/>
      <point x="83" y="643"/>
      <point x="83" y="637" type="curve" smooth="yes"/>
      <point x="83" y="498"/>
      <point x="72" y="358"/>
      <point x="72" y="237" type="curve" smooth="yes"/>
      <point x="72" y="214"/>
      <point x="82" y="205"/>
      <point x="88" y="205" type="curve" smooth="yes"/>
      <point x="95" y="205"/>
      <point x="104" y="217"/>
    </contour>
    <contour>
      <point x="115" y="10" type="curve" smooth="yes"/>
      <point x="115" y="27"/>
      <point x="105" y="37"/>
      <point x="88" y="37" type="curve" smooth="yes"/>
      <point x="74" y="37"/>
      <point x="64" y="27"/>
      <point x="64" y="10" type="curve" smooth="yes"/>
      <point x="64" y="-4"/>
      <point x="74" y="-14"/>
      <point x="88" y="-14" type="curve" smooth="yes"/>
      <point x="105" y="-14"/>
      <point x="115" y="-4"/>
    </contour>
  </outline>
</glyph>
<glyph name="dollar" format="1">
  <advance width="184"/>
  <unicode hex="0024"/>
  <outline>
    <contour>
      <point x="105" y="-52" type="curve" smooth="yes"/>
      <point x="106" y="8" type="line" smooth="yes"/>
      <point x="106" y="15"/>
      <point x="112" y="18"/>
      <point x="115" y="19" type="curve" smooth="yes"/>
      <point x="140" y="38"/>
      <point x="164" y="94"/>
      <point x="164" y="171" type="curve" smooth="yes"/>
      <point x="164" y="226"/>
      <point x="156" y="259"/>
      <point x="113" y="323" type="curve"/>
      <point x="123" y="318"/>
      <point x="116" y="327"/>
      <point x="116" y="333" type="curve" smooth="yes"/>
      <point x="122" y="542" type="line" smooth="yes"/>
      <point x="122" y="548"/>
      <point x="126" y="548"/>
      <point x="128" y="547" type="curve" smooth="yes"/>
      <point x="124" y="544"/>
      <point x="126" y="515"/>
      <point x="124" y="504" type="curve" smooth="yes"/>
      <point x="125" y="498"/>
      <point x="128" y="490"/>
      <point x="141" y="490" type="curve" smooth="yes"/>
      <point x="152" y="490"/>
      <point x="160" y="498"/>
      <point x="160" y="505" type="curve" smooth="yes"/>
      <point x="160" y="541"/>
      <point x="156" y="567"/>
      <point x="148" y="587" type="curve" smooth="yes"/>
      <point x="146" y="593"/>
      <point x="142" y="597"/>
      <point x="139" y="605" type="curve" smooth="yes"/>
      <point x="137" y="610"/>
      <point x="136" y="615"/>
      <point x="132" y="616" type="curve" smooth="yes"/>
      <point x="130" y="619"/>
      <point x="127" y="618"/>
      <point x="127" y="623" type="curve" smooth="yes"/>
      <point x="127" y="643"/>
      <point x="130" y="689"/>
      <point x="131" y="709" type="curve"/>
      <point x="130" y="716"/>
      <point x="124" y="724"/>
      <point x="117" y="724" type="curve" smooth="yes"/>
      <point x="104" y="724"/>
      <point x="89" y="719"/>
      <point x="89" y="706" type="curve" smooth="yes"/>
      <point x="87" y="641" type="line" smooth="yes"/>
      <point x="87" y="636"/>
      <point x="87" y="633"/>
      <point x="80" y="631" type="curve" smooth="yes"/>
      <point x="32" y="624"/>
      <point x="32" y="562"/>
      <point x="32" y="511" type="curve" smooth="yes"/>
      <point x="32" y="467"/>
      <point x="40" y="410"/>
      <point x="74" y="356" type="curve" smooth="yes"/>
      <point x="69" y="354"/>
      <point x="79" y="348"/>
      <point x="77" y="328" type="curve" smooth="yes"/>
      <point x="69" y="98" type="line" smooth="yes"/>
      <point x="68" y="89"/>
      <point x="63" y="83"/>
      <point x="61" y="88" type="curve" smooth="yes"/>
      <point x="59" y="113"/>
      <point x="62" y="145"/>
      <point x="57" y="174" type="curve" smooth="yes"/>
      <point x="55" y="179"/>
      <point x="48" y="185"/>
      <point x="39" y="185" type="curve" smooth="yes"/>
      <point x="29" y="185"/>
      <point x="19" y="178"/>
      <point x="19" y="170" type="curve"/>
      <point x="20" y="144"/>
      <point x="22" y="99"/>
      <point x="24" y="75" type="curve" smooth="yes"/>
      <point x="25" y="67"/>
      <point x="26" y="61"/>
      <point x="29" y="57" type="curve"/>
      <point x="35" y="38"/>
      <point x="47" y="27"/>
      <point x="57" y="21" type="curve" smooth="yes"/>
      <point x="60" y="21"/>
      <point x="64" y="17"/>
      <point x="65" y="12" type="curve"/>
      <point x="65" y="-49" type="line" smooth="yes"/>
      <point x="64" y="-62"/>
      <point x="73" y="-69"/>
      <point x="81" y="-68" type="curve" smooth="yes"/>
      <point x="92" y="-67"/>
      <point x="104" y="-63"/>
    </contour>
    <contour>
      <point x="107" y="58" type="curve" smooth="yes"/>
      <point x="111" y="247" type="line" smooth="yes"/>
      <point x="112" y="257"/>
      <point x="119" y="259"/>
      <point x="122" y="253" type="curve" smooth="yes"/>
      <point x="172" y="206"/>
      <point x="164" y="181"/>
      <point x="164" y="165" type="curve" smooth="yes"/>
      <point x="164" y="89"/>
      <point x="142" y="43"/>
      <point x="123" y="47" type="curve" smooth="yes"/>
      <point x="109" y="47"/>
      <point x="106" y="53"/>
    </contour>
    <contour>
      <point x="19" y="507" type="curve" smooth="yes"/>
      <point x="19" y="576"/>
      <point x="49" y="611"/>
      <point x="72" y="606" type="curve" smooth="yes"/>
      <point x="76" y="606"/>
      <point x="84" y="604"/>
      <point x="83" y="595" type="curve" smooth="yes"/>
      <point x="77" y="396" type="line"/>
      <point x="77" y="386"/>
      <point x="70" y="385"/>
      <point x="73" y="390" type="curve" smooth="yes"/>
      <point x="44" y="422"/>
      <point x="19" y="462"/>
    </contour>
  </outline>
</glyph>
<glyph name="percent" format="1">
  <advance width="339"/>
  <unicode hex="0025"/>
  <outline>
    <contour>
      <point x="122" y="-30" type="curve" smooth="yes"/>
      <point x="281" y="627" type="line"/>
      <point x="285" y="629"/>
      <point x="285" y="633"/>
      <point x="285" y="636" type="curve" smooth="yes"/>
      <point x="285" y="648"/>
      <point x="278" y="664"/>
      <point x="272" y="664" type="curve" smooth="yes"/>
      <point x="255" y="664"/>
      <point x="244" y="658"/>
      <point x="236" y="627" type="curve" smooth="yes"/>
      <point x="75" y="-30" type="line"/>
      <point x="74" y="-31"/>
      <point x="74" y="-34"/>
      <point x="74" y="-35" type="curve" smooth="yes"/>
      <point x="74" y="-49"/>
      <point x="83" y="-62"/>
      <point x="91" y="-62" type="curve" smooth="yes"/>
      <point x="104" y="-62"/>
      <point x="115" y="-58"/>
    </contour>
    <contour>
      <point x="97" y="449" type="curve" smooth="yes"/>
      <point x="97" y="530"/>
      <point x="91" y="615"/>
      <point x="75" y="615" type="curve" smooth="yes"/>
      <point x="57" y="615"/>
      <point x="46" y="527"/>
      <point x="46" y="438" type="curve" smooth="yes"/>
      <point x="46" y="354"/>
      <point x="53" y="263"/>
      <point x="71" y="263" type="curve" smooth="yes"/>
      <point x="101" y="263"/>
      <point x="97" y="353"/>
    </contour>
    <contour>
      <point x="56" y="449" type="curve" smooth="yes"/>
      <point x="56" y="511"/>
      <point x="59" y="590"/>
      <point x="72" y="590" type="curve" smooth="yes"/>
      <point x="86" y="590"/>
      <point x="87" y="504"/>
      <point x="87" y="437" type="curve" smooth="yes"/>
      <point x="87" y="371"/>
      <point x="86" y="285"/>
      <point x="73" y="285" type="curve" smooth="yes"/>
      <point x="57" y="285"/>
      <point x="56" y="378"/>
    </contour>
    <contour>
      <point x="289" y="169" type="curve" smooth="yes"/>
      <point x="289" y="250"/>
      <point x="283" y="335"/>
      <point x="267" y="335" type="curve" smooth="yes"/>
      <point x="249" y="335"/>
      <point x="239" y="247"/>
      <point x="239" y="158" type="curve" smooth="yes"/>
      <point x="239" y="74"/>
      <point x="245" y="-17"/>
      <point x="263" y="-17" type="curve" smooth="yes"/>
      <point x="293" y="-17"/>
      <point x="289" y="73"/>
    </contour>
    <contour>
      <point x="249" y="169" type="curve" smooth="yes"/>
      <point x="249" y="231"/>
      <point x="251" y="310"/>
      <point x="264" y="310" type="curve" smooth="yes"/>
      <point x="278" y="310"/>
      <point x="279" y="224"/>
      <point x="279" y="157" type="curve" smooth="yes"/>
      <point x="279" y="91"/>
      <point x="279" y="5"/>
      <point x="265" y="5" type="curve" smooth="yes"/>
      <point x="249" y="5"/>
      <point x="249" y="98"/>
    </contour>
  </outline>
</glyph>
<glyph name="ampersand" format="1">
  <advance width="358"/>
  <unicode hex="0026"/>
  <outline>
    <contour>
      <point x="185" y="104" type="curve"/>
      <point x="188" y="110" type="line"/>
      <point x="192" y="99" type="line" smooth="yes"/>
      <point x="219" y="26"/>
      <point x="216" y="-14"/>
      <point x="237" y="-14" type="curve" smooth="yes"/>
      <point x="264" y="-14"/>
      <point x="302" y="36"/>
      <point x="302" y="53" type="curve" smooth="yes"/>
      <point x="302" y="62"/>
      <point x="302" y="65"/>
      <point x="298" y="65" type="curve" smooth="yes"/>
      <point x="295" y="65"/>
      <point x="292" y="63"/>
      <point x="290" y="60" type="curve" smooth="yes"/>
      <point x="281" y="46"/>
      <point x="270" y="42"/>
      <point x="259" y="42" type="curve" smooth="yes"/>
      <point x="244" y="42"/>
      <point x="212" y="85"/>
      <point x="214" y="103" type="curve" smooth="yes"/>
      <point x="189" y="136" type="line"/>
      <point x="189" y="136"/>
      <point x="293" y="331"/>
      <point x="299" y="342" type="curve" smooth="yes"/>
      <point x="310" y="364"/>
      <point x="327" y="375"/>
      <point x="339" y="377" type="curve"/>
      <point x="343" y="378"/>
      <point x="349" y="388"/>
      <point x="349" y="396" type="curve" smooth="yes"/>
      <point x="349" y="400"/>
      <point x="345" y="405"/>
      <point x="344" y="405" type="curve" smooth="yes"/>
      <point x="334" y="405"/>
      <point x="297" y="396"/>
      <point x="285" y="396" type="curve" smooth="yes"/>
      <point x="278" y="396"/>
      <point x="239" y="401"/>
      <point x="237" y="401" type="curve" smooth="yes"/>
      <point x="235" y="401"/>
      <point x="228" y="400"/>
      <point x="228" y="390" type="curve" smooth="yes"/>
      <point x="228" y="387"/>
      <point x="232" y="380"/>
      <point x="232" y="379" type="curve"/>
      <point x="240" y="376"/>
      <point x="257" y="366"/>
      <point x="256" y="345" type="curve" smooth="yes"/>
      <point x="255" y="330"/>
      <point x="207" y="236"/>
      <point x="188" y="185" type="curve" smooth="yes"/>
      <point x="180" y="166" type="line"/>
      <point x="175" y="184" type="line" smooth="yes"/>
      <point x="160" y="238"/>
      <point x="142" y="268"/>
      <point x="121" y="322" type="curve" smooth="yes"/>
      <point x="116" y="336" type="line"/>
      <point x="124" y="345" type="line" smooth="yes"/>
      <point x="137" y="369"/>
      <point x="138" y="430"/>
      <point x="139" y="493" type="curve" smooth="yes"/>
      <point x="139" y="554"/>
      <point x="136" y="599"/>
      <point x="100" y="599" type="curve" smooth="yes"/>
      <point x="80" y="599"/>
      <point x="57" y="554"/>
      <point x="57" y="484" type="curve" smooth="yes"/>
      <point x="57" y="425"/>
      <point x="84" y="393"/>
      <point x="94" y="371" type="curve"/>
      <point x="106" y="351" type="line"/>
      <point x="95" y="342" type="line" smooth="yes"/>
      <point x="47" y="298"/>
      <point x="12" y="233"/>
      <point x="12" y="127" type="curve" smooth="yes"/>
      <point x="12" y="45"/>
      <point x="47" y="-14"/>
      <point x="99" y="-14" type="curve" smooth="yes"/>
      <point x="138" y="-14"/>
      <point x="159" y="37"/>
    </contour>
    <contour>
      <point x="21" y="128" type="curve" smooth="yes"/>
      <point x="21" y="194"/>
      <point x="36" y="265"/>
      <point x="102" y="309" type="curve" smooth="yes"/>
      <point x="117" y="318" type="line"/>
      <point x="122" y="307" type="line" smooth="yes"/>
      <point x="147" y="247"/>
      <point x="156" y="210"/>
      <point x="174" y="159" type="curve" smooth="yes"/>
      <point x="180" y="144" type="line"/>
      <point x="173" y="130" type="line" smooth="yes"/>
      <point x="134" y="54"/>
      <point x="116" y="-5"/>
      <point x="90" y="-5" type="curve" smooth="yes"/>
      <point x="51" y="-5"/>
      <point x="21" y="54"/>
    </contour>
    <contour>
      <point x="95" y="376" type="line" smooth="yes"/>
      <point x="73" y="420"/>
      <point x="67" y="443"/>
      <point x="67" y="477" type="curve" smooth="yes"/>
      <point x="67" y="532"/>
      <point x="86" y="573"/>
      <point x="101" y="573" type="curve" smooth="yes"/>
      <point x="119" y="573"/>
      <point x="132" y="537"/>
      <point x="132" y="478" type="curve" smooth="yes"/>
      <point x="132" y="444"/>
      <point x="127" y="389"/>
      <point x="114" y="372" type="curve" smooth="yes"/>
      <point x="102" y="363" type="line"/>
    </contour>
  </outline>
</glyph>
<glyph name="parenleft" format="1">
  <advance width="148"/>
  <unicode hex="0028"/>
  <outline>
    <contour>
      <point x="124" y="-192" type="curve" smooth="yes"/>
      <point x="124" y="-190"/>
      <point x="119" y="-175"/>
      <point x="119" y="-173" type="curve" smooth="yes"/>
      <point x="84" y="-38"/>
      <point x="63" y="111"/>
      <point x="63" y="281" type="curve" smooth="yes"/>
      <point x="63" y="451"/>
      <point x="85" y="563"/>
      <point x="120" y="670" type="curve" smooth="yes"/>
      <point x="120" y="672"/>
      <point x="124" y="687"/>
      <point x="124" y="689" type="curve" smooth="yes"/>
      <point x="124" y="698"/>
      <point x="115" y="705"/>
      <point x="113" y="705" type="curve" smooth="yes"/>
      <point x="111" y="705"/>
      <point x="108" y="700"/>
      <point x="106" y="694" type="curve" smooth="yes"/>
      <point x="84" y="625"/>
      <point x="51" y="439"/>
      <point x="51" y="269" type="curve" smooth="yes"/>
      <point x="51" y="99"/>
      <point x="91" y="-135"/>
      <point x="108" y="-207" type="curve" smooth="yes"/>
      <point x="109" y="-212"/>
      <point x="110" y="-214"/>
      <point x="111" y="-214" type="curve" smooth="yes"/>
      <point x="115" y="-214"/>
      <point x="124" y="-206"/>
    </contour>
  </outline>
</glyph>
<glyph name="plus" format="1">
  <advance width="241"/>
  <unicode hex="002B"/>
  <outline>
    <contour>
      <point x="150" y="159" type="curve" smooth="yes"/>
      <point x="150" y="211" type="line" smooth="yes"/>
      <point x="150" y="214"/>
      <point x="151" y="215"/>
      <point x="154" y="215" type="curve" smooth="yes"/>
      <point x="190" y="215" type="line" smooth="yes"/>
      <point x="209" y="215"/>
      <point x="221" y="246"/>
      <point x="221" y="263" type="curve" smooth="yes"/>
      <point x="221" y="269"/>
      <point x="215" y="273"/>
      <point x="208" y="273" type="curve" smooth="yes"/>
      <point x="152" y="273" type="line" smooth="yes"/>
      <point x="150" y="273"/>
      <point x="150" y="274"/>
      <point x="150" y="279" type="curve" smooth="yes"/>
      <point x="150" y="341" type="line" smooth="yes"/>
      <point x="150" y="348"/>
      <point x="143" y="354"/>
      <point x="136" y="354" type="curve" smooth="yes"/>
      <point x="130" y="354"/>
      <point x="90" y="345"/>
      <point x="90" y="323" type="curve" smooth="yes"/>
      <point x="90" y="281" type="line" smooth="yes"/>
      <point x="90" y="275"/>
      <point x="89" y="273"/>
      <point x="83" y="273" type="curve" smooth="yes"/>
      <point x="44" y="273" type="line" smooth="yes"/>
      <point x="26" y="273"/>
      <point x="20" y="236"/>
      <point x="20" y="227" type="curve" smooth="yes"/>
      <point x="20" y="221"/>
      <point x="27" y="215"/>
      <point x="34" y="215" type="curve" smooth="yes"/>
      <point x="86" y="215" type="line" smooth="yes"/>
      <point x="89" y="215"/>
      <point x="90" y="213"/>
      <point x="90" y="210" type="curve" smooth="yes"/>
      <point x="90" y="149" type="line" smooth="yes"/>
      <point x="90" y="142"/>
      <point x="96" y="135"/>
      <point x="102" y="135" type="curve" smooth="yes"/>
      <point x="111" y="135"/>
      <point x="150" y="138"/>
    </contour>
  </outline>
</glyph>
<glyph name="hyphen" format="1">
  <advance width="113"/>
  <unicode hex="002D"/>
  <outline>
    <contour>
      <point x="92" y="182" type="curve" smooth="yes"/>
      <point x="98" y="183"/>
      <point x="100" y="211"/>
      <point x="100" y="236" type="curve" smooth="yes"/>
      <point x="100" y="240"/>
      <point x="98" y="242"/>
      <point x="96" y="242" type="curve"/>
      <point x="71" y="238"/>
      <point x="45" y="234"/>
      <point x="19" y="230" type="curve"/>
      <point x="16" y="229"/>
      <point x="13" y="198"/>
      <point x="13" y="176" type="curve" smooth="yes"/>
      <point x="13" y="172"/>
      <point x="13" y="170"/>
      <point x="16" y="170" type="curve"/>
      <point x="41" y="174"/>
      <point x="66" y="179"/>
    </contour>
  </outline>
</glyph>
<glyph name="three" format="1">
  <advance width="129"/>
  <unicode hex="0033"/>
  <outline>
    <contour>
      <point x="116" y="176" type="curve" smooth="yes"/>
      <point x="116" y="268"/>
      <point x="91" y="334"/>
      <point x="64" y="334" type="curve" smooth="yes"/>
      <point x="62" y="334"/>
      <point x="62" y="338"/>
      <point x="64" y="340" type="curve"/>
      <point x="89" y="385"/>
      <point x="99" y="446"/>
      <point x="99" y="494" type="curve" smooth="yes"/>
      <point x="99" y="571"/>
      <point x="84" y="630"/>
      <point x="36" y="630" type="curve" smooth="yes"/>
      <point x="-5" y="630"/>
      <point x="-7" y="541"/>
      <point x="-7" y="500" type="curve" smooth="yes"/>
      <point x="-7" y="490"/>
      <point x="-4" y="481"/>
      <point x="0" y="481" type="curve" smooth="yes"/>
      <point x="1" y="481"/>
      <point x="9" y="570"/>
      <point x="44" y="570" type="curve" smooth="yes"/>
      <point x="64" y="570"/>
      <point x="86" y="535"/>
      <point x="86" y="466" type="curve" smooth="yes"/>
      <point x="86" y="395"/>
      <point x="52" y="342"/>
      <point x="44" y="332" type="curve" smooth="yes"/>
      <point x="39" y="326"/>
      <point x="34" y="315"/>
      <point x="34" y="298" type="curve" smooth="yes"/>
      <point x="34" y="291"/>
      <point x="37" y="285"/>
      <point x="39" y="289" type="curve" smooth="yes"/>
      <point x="47" y="301"/>
      <point x="56" y="304"/>
      <point x="61" y="304" type="curve" smooth="yes"/>
      <point x="86" y="304"/>
      <point x="105" y="223"/>
      <point x="105" y="146" type="curve" smooth="yes"/>
      <point x="105" y="63"/>
      <point x="76" y="0"/>
      <point x="50" y="0" type="curve" smooth="yes"/>
      <point x="35" y="0"/>
      <point x="32" y="16"/>
      <point x="23" y="31" type="curve" smooth="yes"/>
      <point x="17" y="42"/>
      <point x="8" y="51"/>
      <point x="1" y="51" type="curve" smooth="yes"/>
      <point x="-7" y="51"/>
      <point x="-23" y="29"/>
      <point x="-23" y="12" type="curve" smooth="yes"/>
      <point x="-23" y="-8"/>
      <point x="5" y="-38"/>
      <point x="21" y="-38" type="curve" smooth="yes"/>
      <point x="67" y="-38"/>
      <point x="116" y="33"/>
    </contour>
  </outline>
</glyph>
<glyph name="five" format="1">
  <advance width="129"/>
  <unicode hex="0035"/>
  <outline>
    <contour>
      <point x="130" y="26" type="curve" smooth="yes"/>
      <point x="140" y="67"/>
      <point x="137" y="128"/>
      <point x="137" y="198" type="curve" smooth="yes"/>
      <point x="137" y="263"/>
      <point x="120" y="304"/>
      <point x="97" y="338" type="curve" smooth="yes"/>
      <point x="77" y="362"/>
      <point x="69" y="376"/>
      <point x="45" y="395" type="curve" smooth="yes"/>
      <point x="39" y="399"/>
      <point x="38" y="405"/>
      <point x="38" y="413" type="curve" smooth="yes"/>
      <point x="38" y="428"/>
      <point x="67" y="518"/>
      <point x="72" y="520" type="curve" smooth="yes"/>
      <point x="85" y="524"/>
      <point x="112" y="530"/>
      <point x="133" y="538" type="curve" smooth="yes"/>
      <point x="140" y="540"/>
      <point x="143" y="550"/>
      <point x="148" y="570" type="curve" smooth="yes"/>
      <point x="150" y="580"/>
      <point x="154" y="592"/>
      <point x="155" y="603" type="curve" smooth="yes"/>
      <point x="157" y="612"/>
      <point x="154" y="619"/>
      <point x="143" y="618" type="curve" smooth="yes"/>
      <point x="114" y="615"/>
      <point x="87" y="606"/>
      <point x="62" y="592" type="curve" smooth="yes"/>
      <point x="54" y="587"/>
      <point x="47" y="576"/>
      <point x="42" y="556" type="curve" smooth="yes"/>
      <point x="31" y="512"/>
      <point x="25" y="469"/>
      <point x="25" y="433" type="curve" smooth="yes"/>
      <point x="25" y="415"/>
      <point x="22" y="404"/>
      <point x="28" y="398" type="curve"/>
      <point x="74" y="338"/>
      <point x="127" y="317"/>
      <point x="127" y="204" type="curve" smooth="yes"/>
      <point x="127" y="63"/>
      <point x="95" y="3"/>
      <point x="30" y="-11" type="curve" smooth="yes"/>
      <point x="14" y="-12"/>
      <point x="17" y="-16"/>
      <point x="17" y="-26" type="curve" smooth="yes"/>
      <point x="17" y="-35"/>
      <point x="25" y="-38"/>
      <point x="32" y="-38" type="curve" smooth="yes"/>
      <point x="78" y="-38"/>
      <point x="112" y="-14"/>
    </contour>
  </outline>
</glyph>
<glyph name="six" format="1">
  <advance width="129"/>
  <unicode hex="0036"/>
  <outline>
    <contour>
      <point x="85" y="170" type="curve" smooth="yes"/>
      <point x="85" y="262"/>
      <point x="71" y="313"/>
      <point x="55" y="313" type="curve" smooth="yes"/>
      <point x="44" y="313"/>
      <point x="34" y="296"/>
      <point x="26" y="279" type="curve" smooth="yes"/>
      <point x="25" y="272"/>
      <point x="21" y="264"/>
      <point x="21" y="256" type="curve" smooth="yes"/>
      <point x="18" y="245"/>
      <point x="21" y="238"/>
      <point x="28" y="245" type="curve" smooth="yes"/>
      <point x="38" y="256"/>
      <point x="42" y="260"/>
      <point x="50" y="260" type="curve" smooth="yes"/>
      <point x="69" y="260"/>
      <point x="73" y="203"/>
      <point x="73" y="142" type="curve" smooth="yes"/>
      <point x="73" y="59"/>
      <point x="62" y="21"/>
      <point x="49" y="22" type="curve" smooth="yes"/>
      <point x="32" y="23"/>
      <point x="15" y="84"/>
      <point x="14" y="195" type="curve"/>
      <point x="12" y="304"/>
      <point x="-4" y="414"/>
      <point x="37" y="499" type="curve" smooth="yes"/>
      <point x="39" y="547"/>
      <point x="44" y="588"/>
      <point x="52" y="614" type="curve" smooth="yes"/>
      <point x="55" y="617"/>
      <point x="61" y="624"/>
      <point x="61" y="634" type="curve" smooth="yes"/>
      <point x="61" y="638"/>
      <point x="60" y="644"/>
      <point x="46" y="636" type="curve" smooth="yes"/>
      <point x="47" y="619"/>
      <point x="42" y="573"/>
      <point x="25" y="511" type="curve" smooth="yes"/>
      <point x="-13" y="424"/>
      <point x="2" y="307"/>
      <point x="2" y="193" type="curve" smooth="yes"/>
      <point x="2" y="53"/>
      <point x="29" y="-16"/>
      <point x="58" y="-16" type="curve" smooth="yes"/>
      <point x="88" y="-16"/>
      <point x="85" y="53"/>
    </contour>
  </outline>
</glyph>
<glyph name="less" format="1">
  <advance width="285"/>
  <unicode hex="003C"/>
  <outline>
    <contour>
      <point x="266" y="135" type="curve" smooth="yes"/>
      <point x="266" y="145"/>
      <point x="261" y="182"/>
      <point x="238" y="190" type="curve" smooth="yes"/>
      <point x="112" y="229" type="line"/>
      <point x="108" y="230"/>
      <point x="107" y="233"/>
      <point x="111" y="234" type="curve"/>
      <point x="231" y="291" type="line" smooth="yes"/>
      <point x="254" y="302"/>
      <point x="266" y="336"/>
      <point x="266" y="350" type="curve" smooth="yes"/>
      <point x="266" y="357"/>
      <point x="263" y="361"/>
      <point x="256" y="361" type="curve" smooth="yes"/>
      <point x="255" y="361"/>
      <point x="250" y="359"/>
      <point x="247" y="358" type="curve" smooth="yes"/>
      <point x="57" y="273" type="line" smooth="yes"/>
      <point x="34" y="262"/>
      <point x="19" y="231"/>
      <point x="19" y="221" type="curve" smooth="yes"/>
      <point x="19" y="214"/>
      <point x="47" y="197"/>
      <point x="66" y="190" type="curve" smooth="yes"/>
      <point x="243" y="124" type="line" smooth="yes"/>
      <point x="251" y="121"/>
      <point x="266" y="120"/>
    </contour>
  </outline>
</glyph>
<glyph name="equal" format="1">
  <advance width="243"/>
  <unicode hex="003D"/>
  <outline>
    <contour>
      <point x="192" y="311" type="line"/>
      <point x="211" y="311"/>
      <point x="223" y="342"/>
      <point x="223" y="359" type="curve" smooth="yes"/>
      <point x="223" y="365"/>
      <point x="217" y="369"/>
      <point x="210" y="369" type="curve"/>
      <point x="44" y="369" type="line"/>
      <point x="26" y="369"/>
      <point x="20" y="332"/>
      <point x="20" y="323" type="curve" smooth="yes"/>
      <point x="20" y="317"/>
      <point x="27" y="311"/>
      <point x="34" y="311" type="curve"/>
    </contour>
    <contour>
      <point x="192" y="139" type="line"/>
      <point x="211" y="139"/>
      <point x="223" y="170"/>
      <point x="223" y="187" type="curve" smooth="yes"/>
      <point x="223" y="193"/>
      <point x="217" y="197"/>
      <point x="210" y="197" type="curve"/>
      <point x="44" y="197" type="line"/>
      <point x="26" y="197"/>
      <point x="20" y="160"/>
      <point x="20" y="151" type="curve" smooth="yes"/>
      <point x="20" y="145"/>
      <point x="27" y="139"/>
      <point x="34" y="139" type="curve"/>
    </contour>
  </outline>
</glyph>
<glyph name="R" format="1">
  <advance width="240"/>
  <unicode hex="0052"/>
  <outline>
    <contour>
      <point x="250" y="14" type="curve" smooth="yes"/>
      <point x="250" y="22"/>
      <point x="247" y="25"/>
      <point x="242" y="25" type="curve" smooth="yes"/>
      <point x="215" y="25"/>
      <point x="196" y="26"/>
      <point x="176" y="58" type="curve" smooth="yes"/>
      <point x="123" y="144"/>
      <point x="98" y="222"/>
      <point x="53" y="307" type="curve" smooth="yes"/>
      <point x="50" y="313"/>
      <point x="51" y="318"/>
      <point x="53" y="320" type="curve"/>
      <point x="87" y="348"/>
      <point x="97" y="401"/>
      <point x="97" y="490" type="curve" smooth="yes"/>
      <point x="97" y="607"/>
      <point x="76" y="654"/>
      <point x="87" y="654" type="curve" smooth="yes"/>
      <point x="87" y="654"/>
      <point x="52" y="649"/>
      <point x="49" y="649" type="curve" smooth="yes"/>
      <point x="46" y="649"/>
      <point x="27" y="650"/>
      <point x="18" y="650" type="curve" smooth="yes"/>
      <point x="14" y="650"/>
      <point x="10" y="647"/>
      <point x="10" y="639" type="curve" smooth="yes"/>
      <point x="10" y="630"/>
      <point x="13" y="621"/>
      <point x="19" y="619" type="curve" smooth="yes"/>
      <point x="33" y="615"/>
      <point x="35" y="599"/>
      <point x="35" y="523" type="curve" smooth="yes"/>
      <point x="35" y="99" type="line" smooth="yes"/>
      <point x="35" y="51"/>
      <point x="28" y="33"/>
      <point x="15" y="24" type="curve" smooth="yes"/>
      <point x="11" y="20"/>
      <point x="8" y="15"/>
      <point x="8" y="6" type="curve" smooth="yes"/>
      <point x="8" y="-2"/>
      <point x="10" y="-5"/>
      <point x="16" y="-5" type="curve" smooth="yes"/>
      <point x="26" y="-5"/>
      <point x="47" y="2"/>
      <point x="55" y="2" type="curve" smooth="yes"/>
      <point x="73" y="2"/>
      <point x="74" y="-5"/>
      <point x="80" y="-5" type="curve" smooth="yes"/>
      <point x="81" y="-5"/>
      <point x="82" y="-2"/>
      <point x="82" y="6" type="curve" smooth="yes"/>
      <point x="82" y="15"/>
      <point x="79" y="20"/>
      <point x="71" y="24" type="curve" smooth="yes"/>
      <point x="51" y="33"/>
      <point x="45" y="67"/>
      <point x="45" y="109" type="curve" smooth="yes"/>
      <point x="45" y="284" type="line" smooth="yes"/>
      <point x="45" y="296"/>
      <point x="46" y="305"/>
      <point x="48" y="304" type="curve" smooth="yes"/>
      <point x="54" y="302"/>
      <point x="60" y="297"/>
      <point x="67" y="283" type="curve" smooth="yes"/>
      <point x="71" y="274"/>
      <point x="73" y="263"/>
      <point x="77" y="245" type="curve" smooth="yes"/>
      <point x="100" y="133"/>
      <point x="107" y="103"/>
      <point x="120" y="46" type="curve" smooth="yes"/>
      <point x="133" y="-12"/>
      <point x="168" y="-21"/>
      <point x="199" y="-21" type="curve" smooth="yes"/>
      <point x="207" y="-21"/>
      <point x="250" y="-15"/>
    </contour>
    <contour>
      <point x="45" y="362" type="curve" smooth="yes"/>
      <point x="45" y="442"/>
      <point x="45" y="497"/>
      <point x="45" y="531" type="curve" smooth="yes"/>
      <point x="46" y="600"/>
      <point x="47" y="624"/>
      <point x="56" y="624" type="curve" smooth="yes"/>
      <point x="83" y="624"/>
      <point x="87" y="555"/>
      <point x="87" y="475" type="curve" smooth="yes"/>
      <point x="87" y="398"/>
      <point x="76" y="327"/>
      <point x="55" y="327" type="curve" smooth="yes"/>
      <point x="49" y="327"/>
      <point x="45" y="329"/>
    </contour>
  </outline>
</glyph>
<glyph name="U" format="1">
  <advance width="227"/>
  <unicode hex="0055"/>
  <outline>
    <contour>
      <point x="189" y="196" type="curve" smooth="yes"/>
      <point x="191" y="342"/>
      <point x="189" y="432"/>
      <point x="192" y="547" type="curve" smooth="yes"/>
      <point x="193" y="587"/>
      <point x="199" y="615"/>
      <point x="212" y="622" type="curve" smooth="yes"/>
      <point x="222" y="627"/>
      <point x="225" y="633"/>
      <point x="225" y="642" type="curve" smooth="yes"/>
      <point x="225" y="650"/>
      <point x="218" y="653"/>
      <point x="209" y="653" type="curve" smooth="yes"/>
      <point x="198" y="653"/>
      <point x="182" y="650"/>
      <point x="166" y="650" type="curve" smooth="yes"/>
      <point x="150" y="650"/>
      <point x="142" y="651"/>
      <point x="125" y="651" type="curve" smooth="yes"/>
      <point x="117" y="651"/>
      <point x="111" y="648"/>
      <point x="111" y="640" type="curve" smooth="yes"/>
      <point x="111" y="631"/>
      <point x="119" y="624"/>
      <point x="124" y="620" type="curve" smooth="yes"/>
      <point x="135" y="612"/>
      <point x="141" y="562"/>
      <point x="141" y="511" type="curve" smooth="yes"/>
      <point x="140" y="434"/>
      <point x="142" y="312"/>
      <point x="142" y="181" type="curve" smooth="yes"/>
      <point x="142" y="94"/>
      <point x="126" y="36"/>
      <point x="94" y="36" type="curve" smooth="yes"/>
      <point x="65" y="36"/>
      <point x="45" y="76"/>
      <point x="45" y="167" type="curve" smooth="yes"/>
      <point x="45" y="549" type="line" smooth="yes"/>
      <point x="45" y="589"/>
      <point x="56" y="616"/>
      <point x="62" y="621" type="curve" smooth="yes"/>
      <point x="70" y="628"/>
      <point x="75" y="632"/>
      <point x="75" y="641" type="curve" smooth="yes"/>
      <point x="75" y="649"/>
      <point x="74" y="652"/>
      <point x="73" y="652" type="curve" smooth="yes"/>
      <point x="63" y="652"/>
      <point x="53" y="650"/>
      <point x="42" y="650" type="curve" smooth="yes"/>
      <point x="27" y="650"/>
      <point x="16" y="653"/>
      <point x="6" y="653" type="curve" smooth="yes"/>
      <point x="4" y="653"/>
      <point x="4" y="650"/>
      <point x="4" y="642" type="curve" smooth="yes"/>
      <point x="4" y="633"/>
      <point x="7" y="626"/>
      <point x="16" y="620" type="curve" smooth="yes"/>
      <point x="26" y="614"/>
      <point x="35" y="595"/>
      <point x="35" y="547" type="curve" smooth="yes"/>
      <point x="35" y="188" type="line" smooth="yes"/>
      <point x="35" y="67"/>
      <point x="62" y="-14"/>
      <point x="112" y="-14" type="curve" smooth="yes"/>
      <point x="167" y="-14"/>
      <point x="187" y="65"/>
    </contour>
  </outline>
</glyph>
<glyph name="V" format="1">
  <advance width="201"/>
  <unicode hex="0056"/>
  <outline>
    <contour>
      <point x="75" y="-5" type="curve" smooth="yes"/>
      <point x="73" y="20"/>
      <point x="70" y="70"/>
      <point x="72" y="79" type="curve" smooth="yes"/>
      <point x="156" y="535" type="line" smooth="yes"/>
      <point x="163" y="571"/>
      <point x="176" y="611"/>
      <point x="196" y="622" type="curve" smooth="yes"/>
      <point x="205" y="627"/>
      <point x="209" y="633"/>
      <point x="209" y="642" type="curve" smooth="yes"/>
      <point x="209" y="650"/>
      <point x="204" y="653"/>
      <point x="198" y="653" type="curve" smooth="yes"/>
      <point x="187" y="653"/>
      <point x="155" y="650"/>
      <point x="139" y="650" type="curve" smooth="yes"/>
      <point x="124" y="650"/>
      <point x="99" y="651"/>
      <point x="88" y="651" type="curve" smooth="yes"/>
      <point x="82" y="651"/>
      <point x="77" y="648"/>
      <point x="77" y="640" type="curve" smooth="yes"/>
      <point x="77" y="631"/>
      <point x="82" y="623"/>
      <point x="90" y="620" type="curve" smooth="yes"/>
      <point x="107" y="614"/>
      <point x="120" y="586"/>
      <point x="109" y="514" type="curve" smooth="yes"/>
      <point x="77" y="280" type="line" smooth="yes"/>
      <point x="76" y="271"/>
      <point x="73" y="274"/>
      <point x="72" y="279" type="curve" smooth="yes"/>
      <point x="42" y="533" type="line"/>
      <point x="40" y="542"/>
      <point x="37" y="559"/>
      <point x="37" y="582" type="curve" smooth="yes"/>
      <point x="37" y="605"/>
      <point x="44" y="618"/>
      <point x="59" y="621" type="curve" smooth="yes"/>
      <point x="68" y="623"/>
      <point x="73" y="632"/>
      <point x="73" y="641" type="curve" smooth="yes"/>
      <point x="73" y="649"/>
      <point x="70" y="652"/>
      <point x="69" y="652" type="curve" smooth="yes"/>
      <point x="66" y="652"/>
      <point x="26" y="650"/>
      <point x="19" y="650" type="curve" smooth="yes"/>
      <point x="14" y="650"/>
      <point x="8" y="653"/>
      <point x="4" y="653" type="curve" smooth="yes"/>
      <point x="2" y="653"/>
      <point x="0" y="650"/>
      <point x="0" y="642" type="curve" smooth="yes"/>
      <point x="0" y="633"/>
      <point x="4" y="627"/>
      <point x="10" y="620" type="curve" smooth="yes"/>
      <point x="20" y="609"/>
      <point x="26" y="584"/>
      <point x="30" y="547" type="curve" smooth="yes"/>
      <point x="71" y="121" type="line" smooth="yes"/>
      <point x="71" y="88"/>
      <point x="76" y="9"/>
      <point x="73" y="-5" type="curve" smooth="yes"/>
      <point x="72" y="-10"/>
      <point x="74" y="-11"/>
      <point x="73" y="-11" type="curve" smooth="yes"/>
      <point x="75" y="-11"/>
      <point x="76" y="-9"/>
    </contour>
  </outline>
</glyph>
<glyph name="bracketleft" format="1">
  <advance width="124"/>
  <unicode hex="005B"/>
  <outline>
    <contour>
      <point x="89" y="-200" type="line" smooth="yes"/>
      <point x="101" y="-200"/>
      <point x="115" y="-197"/>
      <point x="115" y="-185" type="curve" smooth="yes"/>
      <point x="115" y="-173"/>
      <point x="102" y="-168"/>
      <point x="89" y="-167" type="curve" smooth="yes"/>
      <point x="74" y="-167" type="line" smooth="yes"/>
      <point x="62" y="-166"/>
      <point x="51" y="-152"/>
      <point x="51" y="-134" type="curve" smooth="yes"/>
      <point x="51" y="647" type="line" smooth="yes"/>
      <point x="51" y="667"/>
      <point x="60" y="671"/>
      <point x="74" y="672" type="curve" smooth="yes"/>
      <point x="89" y="673" type="line" smooth="yes"/>
      <point x="104" y="674"/>
      <point x="115" y="678"/>
      <point x="115" y="688" type="curve" smooth="yes"/>
      <point x="115" y="698"/>
      <point x="106" y="701"/>
      <point x="97" y="701" type="curve" smooth="yes"/>
      <point x="89" y="702" type="line" smooth="yes"/>
      <point x="57" y="702"/>
      <point x="51" y="702"/>
      <point x="51" y="668" type="curve" smooth="yes"/>
      <point x="51" y="-175" type="line" smooth="yes"/>
      <point x="51" y="-199"/>
      <point x="59" y="-200"/>
      <point x="82" y="-200" type="curve" smooth="yes"/>
    </contour>
  </outline>
</glyph>
<glyph name="backslash" format="1">
  <advance width="189"/>
  <unicode hex="005C"/>
  <outline>
    <contour>
      <point x="180" y="-50" type="curve" smooth="yes"/>
      <point x="64" y="638" type="line" smooth="yes"/>
      <point x="61" y="654"/>
      <point x="46" y="664"/>
      <point x="30" y="664" type="curve" smooth="yes"/>
      <point x="17" y="664"/>
      <point x="11" y="661"/>
      <point x="13" y="651" type="curve" smooth="yes"/>
      <point x="129" y="-36" type="line" smooth="yes"/>
      <point x="132" y="-51"/>
      <point x="147" y="-62"/>
      <point x="160" y="-62" type="curve" smooth="yes"/>
      <point x="175" y="-62"/>
      <point x="182" y="-59"/>
    </contour>
  </outline>
</glyph>
<glyph name="asciicircum" format="1">
  <advance width="257"/>
  <unicode hex="005E"/>
  <outline>
    <contour>
      <point x="57" y="303" type="curve" smooth="yes"/>
      <point x="126" y="523" type="line"/>
      <point x="128" y="529"/>
      <point x="127" y="529"/>
      <point x="129" y="523" type="curve"/>
      <point x="204" y="302" type="line" smooth="yes"/>
      <point x="208" y="291"/>
      <point x="219" y="284"/>
      <point x="230" y="284" type="curve" smooth="yes"/>
      <point x="236" y="284"/>
      <point x="236" y="297"/>
      <point x="234" y="305" type="curve"/>
      <point x="136" y="626" type="line"/>
      <point x="122" y="626" type="line"/>
      <point x="22" y="305" type="line"/>
      <point x="21" y="302"/>
      <point x="21" y="298"/>
      <point x="21" y="295" type="curve" smooth="yes"/>
      <point x="21" y="289"/>
      <point x="24" y="284"/>
      <point x="27" y="284" type="curve" smooth="yes"/>
      <point x="34" y="284"/>
      <point x="54" y="290"/>
    </contour>
  </outline>
</glyph>
<glyph name="grave" format="1">
  <advance width="89"/>
  <unicode hex="0060"/>
  <outline>
    <contour>
      <point x="77" y="435" type="curve" smooth="yes"/>
      <point x="78" y="440"/>
      <point x="77" y="446"/>
      <point x="76" y="456" type="curve" smooth="yes"/>
      <point x="66" y="497"/>
      <point x="59" y="563"/>
      <point x="27" y="629" type="curve" smooth="yes"/>
      <point x="23" y="640"/>
      <point x="22" y="663"/>
      <point x="17" y="663" type="curve" smooth="yes"/>
      <point x="12" y="663"/>
      <point x="16" y="670"/>
      <point x="10" y="667" type="curve" smooth="yes"/>
      <point x="7" y="662"/>
      <point x="14" y="650"/>
      <point x="15" y="641" type="curve" smooth="yes"/>
      <point x="24" y="592"/>
      <point x="33" y="503"/>
      <point x="56" y="448" type="curve" smooth="yes"/>
      <point x="57" y="434"/>
      <point x="62" y="426"/>
      <point x="66" y="424" type="curve" smooth="yes"/>
      <point x="70" y="422"/>
      <point x="75" y="425"/>
    </contour>
  </outline>
</glyph>
<glyph name="j" format="1">
  <advance width="96"/>
  <unicode hex="006A"/>
  <outline>
    <contour>
      <point x="48" y="-152" type="curve" smooth="yes"/>
      <point x="55" y="-72"/>
      <point x="54" y="29"/>
      <point x="54" y="91" type="curve" smooth="yes"/>
      <point x="54" y="275" type="line" smooth="yes"/>
      <point x="54" y="320"/>
      <point x="56" y="388"/>
      <point x="58" y="413" type="curve" smooth="yes"/>
      <point x="59" y="429"/>
      <point x="56" y="434"/>
      <point x="49" y="434" type="curve" smooth="yes"/>
      <point x="48" y="434"/>
      <point x="44" y="431"/>
      <point x="42" y="427" type="curve" smooth="yes"/>
      <point x="37" y="415"/>
      <point x="38" y="394"/>
      <point x="33" y="378" type="curve" smooth="yes"/>
      <point x="26" y="374"/>
      <point x="25" y="370"/>
      <point x="25" y="365" type="curve" smooth="yes"/>
      <point x="25" y="359"/>
      <point x="26" y="355"/>
      <point x="33" y="350" type="curve" smooth="yes"/>
      <point x="42" y="343"/>
      <point x="45" y="330"/>
      <point x="45" y="294" type="curve" smooth="yes"/>
      <point x="45" y="69" type="line" smooth="yes"/>
      <point x="45" y="0"/>
      <point x="45" y="-136"/>
      <point x="32" y="-197" type="curve" smooth="yes"/>
      <point x="24" y="-237"/>
      <point x="15" y="-254"/>
      <point x="6" y="-260" type="curve"/>
      <point x="5" y="-261"/>
      <point x="1" y="-269"/>
      <point x="1" y="-277" type="curve" smooth="yes"/>
      <point x="1" y="-284"/>
      <point x="11" y="-287"/>
      <point x="16" y="-287" type="curve" smooth="yes"/>
      <point x="25" y="-287"/>
      <point x="41" y="-220"/>
    </contour>
    <contour>
      <point x="82" y="565" type="curve" smooth="yes"/>
      <point x="82" y="582"/>
      <point x="72" y="592"/>
      <point x="55" y="592" type="curve" smooth="yes"/>
      <point x="41" y="592"/>
      <point x="31" y="582"/>
      <point x="31" y="565" type="curve" smooth="yes"/>
      <point x="31" y="551"/>
      <point x="41" y="541"/>
      <point x="55" y="541" type="curve" smooth="yes"/>
      <point x="72" y="541"/>
      <point x="82" y="551"/>
    </contour>
  </outline>
</glyph>
<glyph name="q" format="1">
  <advance width="134"/>
  <unicode hex="0071"/>
  <outline>
    <contour>
      <point x="101" y="-280" type="curve" smooth="yes"/>
      <point x="114" y="-280"/>
      <point x="115" y="-285"/>
      <point x="129" y="-285" type="curve" smooth="yes"/>
      <point x="133" y="-285"/>
      <point x="131" y="-282"/>
      <point x="131" y="-274" type="curve" smooth="yes"/>
      <point x="131" y="-264"/>
      <point x="125" y="-261"/>
      <point x="122" y="-258" type="curve" smooth="yes"/>
      <point x="111" y="-250"/>
      <point x="105" y="-243"/>
      <point x="105" y="-220" type="curve" smooth="yes"/>
      <point x="105" y="336" type="line" smooth="yes"/>
      <point x="105" y="358"/>
      <point x="111" y="393"/>
      <point x="111" y="405" type="curve" smooth="yes"/>
      <point x="111" y="412"/>
      <point x="102" y="417"/>
      <point x="98" y="417" type="curve" smooth="yes"/>
      <point x="95" y="417"/>
      <point x="93" y="415"/>
      <point x="91" y="412" type="curve" smooth="yes"/>
      <point x="89" y="405"/>
      <point x="81" y="395"/>
      <point x="68" y="395" type="curve" smooth="yes"/>
      <point x="42" y="395"/>
      <point x="45" y="414"/>
      <point x="31" y="414" type="curve" smooth="yes"/>
      <point x="22" y="414"/>
      <point x="14" y="330"/>
      <point x="14" y="193" type="curve" smooth="yes"/>
      <point x="14" y="83"/>
      <point x="30" y="-14"/>
      <point x="52" y="-14" type="curve" smooth="yes"/>
      <point x="59" y="-14"/>
      <point x="75" y="10"/>
      <point x="92" y="45" type="curve"/>
      <point x="92" y="45"/>
      <point x="93" y="44"/>
      <point x="93" y="43" type="curve" smooth="yes"/>
      <point x="96" y="40"/>
      <point x="96" y="32"/>
      <point x="96" y="12" type="curve" smooth="yes"/>
      <point x="96" y="-220" type="line" smooth="yes"/>
      <point x="96" y="-244"/>
      <point x="90" y="-251"/>
      <point x="79" y="-258" type="curve" smooth="yes"/>
      <point x="74" y="-261"/>
      <point x="69" y="-264"/>
      <point x="69" y="-274" type="curve" smooth="yes"/>
      <point x="69" y="-282"/>
      <point x="69" y="-285"/>
      <point x="72" y="-285" type="curve" smooth="yes"/>
      <point x="86" y="-285"/>
      <point x="89" y="-280"/>
    </contour>
    <contour>
      <point x="20" y="224" type="curve" smooth="yes"/>
      <point x="20" y="309"/>
      <point x="33" y="383"/>
      <point x="55" y="383" type="curve" smooth="yes"/>
      <point x="76" y="383"/>
      <point x="96" y="340"/>
      <point x="96" y="274" type="curve" smooth="yes"/>
      <point x="96" y="209"/>
      <point x="96" y="153"/>
      <point x="96" y="90" type="curve"/>
      <point x="86" y="63"/>
      <point x="76" y="45"/>
      <point x="60" y="45" type="curve" smooth="yes"/>
      <point x="29" y="45"/>
      <point x="20" y="145"/>
    </contour>
  </outline>
</glyph>
<glyph name="r" format="1">
  <advance width="133"/>
  <unicode hex="0072"/>
  <outline>
    <contour>
      <point x="43" y="2" type="curve" smooth="yes"/>
      <point x="55" y="2"/>
      <point x="57" y="-3"/>
      <point x="69" y="-3" type="curve" smooth="yes"/>
      <point x="75" y="-3"/>
      <point x="76" y="0"/>
      <point x="76" y="8" type="curve" smooth="yes"/>
      <point x="76" y="17"/>
      <point x="72" y="20"/>
      <point x="67" y="24" type="curve" smooth="yes"/>
      <point x="54" y="33"/>
      <point x="46" y="44"/>
      <point x="46" y="62" type="curve" smooth="yes"/>
      <point x="46" y="264" type="line" smooth="yes"/>
      <point x="46" y="331"/>
      <point x="60" y="348"/>
      <point x="73" y="348" type="curve" smooth="yes"/>
      <point x="78" y="348"/>
      <point x="81" y="343"/>
      <point x="86" y="339" type="curve" smooth="yes"/>
      <point x="93" y="335"/>
      <point x="94" y="330"/>
      <point x="99" y="330" type="curve" smooth="yes"/>
      <point x="114" y="330"/>
      <point x="128" y="362"/>
      <point x="128" y="382" type="curve" smooth="yes"/>
      <point x="128" y="400"/>
      <point x="114" y="414"/>
      <point x="93" y="414" type="curve" smooth="yes"/>
      <point x="76" y="414"/>
      <point x="57" y="385"/>
      <point x="43" y="346" type="curve"/>
      <point x="44" y="346"/>
      <point x="43" y="347"/>
      <point x="43" y="348" type="curve"/>
      <point x="45" y="380"/>
      <point x="44" y="412"/>
      <point x="44" y="419" type="curve" smooth="yes"/>
      <point x="44" y="426"/>
      <point x="43" y="430"/>
      <point x="38" y="430" type="curve" smooth="yes"/>
      <point x="32" y="430"/>
      <point x="28" y="424"/>
      <point x="27" y="419" type="curve" smooth="yes"/>
      <point x="23" y="404"/>
      <point x="26" y="392"/>
      <point x="20" y="374" type="curve" smooth="yes"/>
      <point x="21" y="373"/>
      <point x="19" y="368"/>
      <point x="19" y="362" type="curve" smooth="yes"/>
      <point x="19" y="356"/>
      <point x="22" y="350"/>
      <point x="23" y="349" type="curve" smooth="yes"/>
      <point x="36" y="342"/>
      <point x="37" y="313"/>
      <point x="37" y="277" type="curve" smooth="yes"/>
      <point x="37" y="62" type="line" smooth="yes"/>
      <point x="37" y="43"/>
      <point x="31" y="31"/>
      <point x="21" y="24" type="curve" smooth="yes"/>
      <point x="16" y="20"/>
      <point x="12" y="18"/>
      <point x="12" y="8" type="curve" smooth="yes"/>
      <point x="12" y="0"/>
      <point x="14" y="-3"/>
      <point x="18" y="-3" type="curve" smooth="yes"/>
      <point x="30" y="-3"/>
      <point x="31" y="2"/>
    </contour>
  </outline>
</glyph>
<glyph name="x" format="1">
  <advance width="231"/>
  <unicode hex="0078"/>
  <outline>
    <contour>
      <point x="54" y="1" type="curve" smooth="yes"/>
      <point x="61" y="1"/>
      <point x="70" y="-2"/>
      <point x="74" y="-2" type="curve" smooth="yes"/>
      <point x="76" y="-2"/>
      <point x="83" y="-3"/>
      <point x="83" y="7" type="curve" smooth="yes"/>
      <point x="83" y="17"/>
      <point x="78" y="21"/>
      <point x="74" y="25" type="curve"/>
      <point x="70" y="28"/>
      <point x="69" y="34"/>
      <point x="69" y="41" type="curve" smooth="yes"/>
      <point x="69" y="47"/>
      <point x="71" y="55"/>
      <point x="72" y="63" type="curve"/>
      <point x="125" y="207" type="line" smooth="yes"/>
      <point x="127" y="212"/>
      <point x="127" y="213"/>
      <point x="129" y="207" type="curve"/>
      <point x="192" y="67" type="line" smooth="yes"/>
      <point x="194" y="62"/>
      <point x="195" y="56"/>
      <point x="195" y="51" type="curve" smooth="yes"/>
      <point x="195" y="42"/>
      <point x="195" y="33"/>
      <point x="185" y="28" type="curve" smooth="yes"/>
      <point x="178" y="23"/>
      <point x="175" y="20"/>
      <point x="175" y="8" type="curve" smooth="yes"/>
      <point x="175" y="3"/>
      <point x="174" y="-2"/>
      <point x="175" y="-2" type="curve" smooth="yes"/>
      <point x="176" y="-2"/>
      <point x="206" y="0"/>
      <point x="207" y="0" type="curve" smooth="yes"/>
      <point x="209" y="0"/>
      <point x="219" y="-4"/>
      <point x="220" y="-4" type="curve" smooth="yes"/>
      <point x="223" y="-4"/>
      <point x="229" y="-3"/>
      <point x="229" y="5" type="curve" smooth="yes"/>
      <point x="229" y="16"/>
      <point x="223" y="20"/>
      <point x="219" y="23" type="curve" smooth="yes"/>
      <point x="210" y="27"/>
      <point x="208" y="40"/>
      <point x="199" y="65" type="curve" smooth="yes"/>
      <point x="156" y="196" type="line" smooth="yes"/>
      <point x="155" y="201"/>
      <point x="156" y="206"/>
      <point x="159" y="212" type="curve" smooth="yes"/>
      <point x="193" y="331" type="line" smooth="yes"/>
      <point x="193" y="360"/>
      <point x="213" y="372"/>
      <point x="221" y="378" type="curve"/>
      <point x="226" y="382"/>
      <point x="231" y="386"/>
      <point x="231" y="396" type="curve" smooth="yes"/>
      <point x="231" y="404"/>
      <point x="226" y="405"/>
      <point x="222" y="405" type="curve" smooth="yes"/>
      <point x="216" y="405"/>
      <point x="196" y="400"/>
      <point x="181" y="400" type="curve" smooth="yes"/>
      <point x="174" y="400"/>
      <point x="165" y="403"/>
      <point x="160" y="403" type="curve" smooth="yes"/>
      <point x="159" y="403"/>
      <point x="151" y="404"/>
      <point x="151" y="394" type="curve" smooth="yes"/>
      <point x="151" y="384"/>
      <point x="157" y="380"/>
      <point x="160" y="376" type="curve"/>
      <point x="165" y="373"/>
      <point x="166" y="367"/>
      <point x="166" y="360" type="curve" smooth="yes"/>
      <point x="166" y="353"/>
      <point x="165" y="345"/>
      <point x="163" y="338" type="curve"/>
      <point x="128" y="235" type="line" smooth="yes"/>
      <point x="128" y="231"/>
      <point x="127" y="230"/>
      <point x="125" y="235" type="curve" smooth="yes"/>
      <point x="79" y="335" type="line"/>
      <point x="75" y="349"/>
      <point x="70" y="358"/>
      <point x="70" y="364" type="curve" smooth="yes"/>
      <point x="70" y="371"/>
      <point x="69" y="375"/>
      <point x="78" y="379" type="curve" smooth="yes"/>
      <point x="82" y="382"/>
      <point x="85" y="385"/>
      <point x="85" y="393" type="curve" smooth="yes"/>
      <point x="85" y="403"/>
      <point x="78" y="402"/>
      <point x="75" y="402" type="curve" smooth="yes"/>
      <point x="76" y="402"/>
      <point x="52" y="400"/>
      <point x="51" y="400" type="curve" smooth="yes"/>
      <point x="54" y="400"/>
      <point x="39" y="404"/>
      <point x="39" y="404" type="curve" smooth="yes"/>
      <point x="40" y="404"/>
      <point x="40" y="405"/>
      <point x="40" y="395" type="curve" smooth="yes"/>
      <point x="40" y="384"/>
      <point x="46" y="380"/>
      <point x="49" y="377" type="curve" smooth="yes"/>
      <point x="58" y="372"/>
      <point x="69" y="357"/>
      <point x="79" y="331" type="curve" smooth="yes"/>
      <point x="100" y="242" type="line"/>
      <point x="101" y="238"/>
      <point x="99" y="232"/>
      <point x="103" y="234" type="curve" smooth="yes"/>
      <point x="42" y="69" type="line" smooth="yes"/>
      <point x="35" y="43"/>
      <point x="22" y="28"/>
      <point x="14" y="23" type="curve"/>
      <point x="9" y="19"/>
      <point x="5" y="15"/>
      <point x="5" y="5" type="curve" smooth="yes"/>
      <point x="5" y="-3"/>
      <point x="9" y="-4"/>
      <point x="13" y="-4" type="curve" smooth="yes"/>
      <point x="19" y="-4"/>
      <point x="39" y="1"/>
    </contour>
  </outline>
</glyph>
<glyph name="braceleft" format="1">
  <advance width="227"/>
  <unicode hex="007B"/>
  <outline>
    <contour>
      <point x="159" y="-125" type="curve" smooth="yes"/>
      <point x="57" y="-119"/>
      <point x="9" y="-99"/>
      <point x="15" y="-26" type="curve" smooth="yes"/>
      <point x="54" y="42"/>
      <point x="88" y="89"/>
      <point x="88" y="147" type="curve" smooth="yes"/>
      <point x="88" y="227"/>
      <point x="66" y="260"/>
      <point x="5" y="279" type="curve" smooth="yes"/>
      <point x="3" y="280"/>
      <point x="47" y="281"/>
      <point x="44" y="283" type="curve"/>
      <point x="109" y="308"/>
      <point x="123" y="352"/>
      <point x="122" y="414" type="curve"/>
      <point x="123" y="472"/>
      <point x="68" y="519"/>
      <point x="68" y="587" type="curve" smooth="yes"/>
      <point x="68" y="660"/>
      <point x="135" y="680"/>
      <point x="237" y="686" type="curve" smooth="yes"/>
      <point x="254" y="687"/>
      <point x="255" y="691"/>
      <point x="217" y="700" type="curve" smooth="yes"/>
      <point x="211" y="709"/>
      <point x="192" y="715"/>
      <point x="183" y="715" type="curve" smooth="yes"/>
      <point x="89" y="711"/>
      <point x="-8" y="676"/>
      <point x="-5" y="582" type="curve" smooth="yes"/>
      <point x="30" y="512"/>
      <point x="79" y="466"/>
      <point x="79" y="404" type="curve" smooth="yes"/>
      <point x="79" y="346"/>
      <point x="39" y="315"/>
      <point x="-14" y="301" type="curve" smooth="yes"/>
      <point x="-29" y="297"/>
      <point x="-7" y="289"/>
      <point x="14" y="285" type="curve" smooth="yes"/>
      <point x="14" y="275"/>
      <point x="28" y="267"/>
      <point x="37" y="265" type="curve" smooth="yes"/>
      <point x="80" y="255"/>
      <point x="118" y="214"/>
      <point x="122" y="155" type="curve" smooth="yes"/>
      <point x="108" y="95"/>
      <point x="58" y="49"/>
      <point x="58" y="-21" type="curve" smooth="yes"/>
      <point x="58" y="-115"/>
      <point x="164" y="-146"/>
      <point x="258" y="-152" type="curve" smooth="yes"/>
      <point x="267" y="-153"/>
      <point x="241" y="-146"/>
      <point x="207" y="-137" type="curve" smooth="yes"/>
      <point x="204" y="-126"/>
      <point x="177" y="-126"/>
    </contour>
  </outline>
</glyph>
